<svg width="14" height="14" viewBox="0 0 14 14" fill="none" xmlns="http://www.w3.org/2000/svg">
<path d="M2.14664 6.61111H1.54664V6.61111L2.14664 6.61111ZM2.14664 7.58333L1.72404 8.00926C1.95797 8.24136 2.3353 8.24136 2.56923 8.00926L2.14664 7.58333ZM3.54912 7.03704C3.78436 6.80365 3.78585 6.42375 3.55246 6.18852C3.31906 5.95328 2.93917 5.95179 2.70393 6.18518L3.54912 7.03704ZM1.58934 6.18518C1.35411 5.95179 0.974213 5.95328 0.740821 6.18852C0.507428 6.42375 0.508921 6.80365 0.744154 7.03704L1.58934 6.18518ZM10.7207 4.39757C10.8943 4.67986 11.2638 4.76801 11.5461 4.59447C11.8284 4.42092 11.9165 4.05139 11.743 3.7691L10.7207 4.39757ZM7.04609 1.15C4.01328 1.15 1.54664 3.59059 1.54664 6.61111H2.74664C2.74664 4.2622 4.66711 2.35 7.04609 2.35V1.15ZM1.54664 6.61111L1.54664 7.58333L2.74664 7.58333L2.74664 6.61111L1.54664 6.61111ZM2.56923 8.00926L3.54912 7.03704L2.70393 6.18518L1.72404 7.15741L2.56923 8.00926ZM2.56923 7.15741L1.58934 6.18518L0.744154 7.03704L1.72404 8.00926L2.56923 7.15741ZM11.743 3.7691C10.7774 2.19846 9.03438 1.15 7.04609 1.15V2.35C8.60327 2.35 9.96593 3.1698 10.7207 4.39757L11.743 3.7691Z" fill="#97A1A8"/>
<path d="M11.8497 6.41666L12.2715 5.98992C12.0377 5.7589 11.6616 5.7589 11.4279 5.98992L11.8497 6.41666ZM10.4443 6.96215C10.2086 7.19509 10.2064 7.57498 10.4393 7.81066C10.6723 8.04634 11.0522 8.04855 11.2878 7.81561L10.4443 6.96215ZM12.4115 7.81561C12.6472 8.04855 13.0271 8.04634 13.2601 7.81066C13.493 7.57498 13.4908 7.19509 13.2551 6.96215L12.4115 7.81561ZM3.24033 9.60155C3.06631 9.31956 2.69663 9.23203 2.41463 9.40606C2.13264 9.58009 2.04511 9.94976 2.21914 10.2318L3.24033 9.60155ZM6.93151 12.85C9.9725 12.85 12.4497 10.4116 12.4497 7.38888H11.2497C11.2497 9.73564 9.323 11.65 6.93151 11.65V12.85ZM12.4497 7.38888V6.41666H11.2497V7.38888H12.4497ZM11.4279 5.98992L10.4443 6.96215L11.2878 7.81561L12.2715 6.84339L11.4279 5.98992ZM11.4279 6.84339L12.4115 7.81561L13.2551 6.96215L12.2715 5.98992L11.4279 6.84339ZM2.21914 10.2318C3.1885 11.8025 4.93752 12.85 6.93151 12.85V11.65C5.36648 11.65 3.99794 10.8292 3.24033 9.60155L2.21914 10.2318Z" fill="#97A1A8"/>
</svg>
