<svg width="14" height="14" viewBox="0 0 14 14" fill="none" xmlns="http://www.w3.org/2000/svg">
<path d="M2.14652 6.61111H1.39652V6.61111L2.14652 6.61111ZM2.14652 7.58333L1.61827 8.11574C1.91068 8.40586 2.38235 8.40586 2.67476 8.11574L2.14652 7.58333ZM3.65465 7.14352C3.94869 6.85178 3.95056 6.37691 3.65881 6.08287C3.36707 5.78883 2.8922 5.78696 2.59816 6.0787L3.65465 7.14352ZM1.69487 6.0787C1.40083 5.78696 0.925957 5.78883 0.634217 6.08287C0.342476 6.37691 0.344342 6.85178 0.638383 7.14352L1.69487 6.0787ZM10.5928 4.47612C10.8098 4.82899 11.2717 4.93918 11.6245 4.72225C11.9774 4.50532 12.0876 4.04341 11.8707 3.69054L10.5928 4.47612ZM7.04596 1C3.93143 1 1.39652 3.50664 1.39652 6.61111H2.89652C2.89652 4.34615 4.74872 2.5 7.04596 2.5V1ZM1.39652 6.61111L1.39652 7.58333L2.89652 7.58333L2.89652 6.61111L1.39652 6.61111ZM2.67476 8.11574L3.65465 7.14352L2.59816 6.0787L1.61827 7.05092L2.67476 8.11574ZM2.67476 7.05092L1.69487 6.0787L0.638383 7.14352L1.61827 8.11574L2.67476 7.05092ZM11.8707 3.69054C10.8787 2.07704 9.08815 1 7.04596 1V2.5C8.54925 2.5 9.86437 3.29121 10.5928 4.47612L11.8707 3.69054Z" fill="currentColor"/>
<path d="M11.8498 6.41666L12.377 5.88324C12.0849 5.59446 11.6148 5.59446 11.3226 5.88324L11.8498 6.41666ZM10.339 6.85546C10.0444 7.14664 10.0416 7.62151 10.3328 7.9161C10.6239 8.2107 11.0988 8.21347 11.3934 7.92229L10.339 6.85546ZM12.3062 7.92229C12.6008 8.21347 13.0757 8.2107 13.3669 7.9161C13.658 7.62151 13.6553 7.14664 13.3607 6.85546L12.3062 7.92229ZM3.36811 9.52278C3.15057 9.17028 2.68847 9.06088 2.33598 9.27841C1.98349 9.49594 1.87408 9.95804 2.09161 10.3105L3.36811 9.52278ZM6.93163 13C10.0538 13 12.5998 10.496 12.5998 7.38888H11.0998C11.0998 9.65115 9.24193 11.5 6.93163 11.5V13ZM12.5998 7.38888V6.41666H11.0998V7.38888H12.5998ZM11.3226 5.88324L10.339 6.85546L11.3934 7.92229L12.377 6.95007L11.3226 5.88324ZM11.3226 6.95007L12.3062 7.92229L13.3607 6.85546L12.377 5.88324L11.3226 6.95007ZM2.09161 10.3105C3.08745 11.9242 4.88402 13 6.93163 13V11.5C5.42022 11.5 4.09924 10.7075 3.36811 9.52278L2.09161 10.3105Z" fill="currentColor"/>
</svg>
