<svg width="18" height="18" viewBox="0 0 18 18" fill="none" xmlns="http://www.w3.org/2000/svg">
<path fill-rule="evenodd" clip-rule="evenodd" d="M6.65133 5.34998C6.67099 4.25779 6.90753 3.63668 7.27212 3.27209C7.65308 2.89113 8.31411 2.64998 9.5 2.64998H12.5C13.6859 2.64998 14.3469 2.89113 14.7279 3.27209C15.1088 3.65306 15.35 4.31409 15.35 5.49998V8.49998C15.35 9.68587 15.1088 10.3469 14.7279 10.7279C14.3633 11.0924 13.7422 11.329 12.6501 11.3486V9.49998C12.6501 8.18587 12.3913 7.0969 11.6472 6.35286C10.9032 5.60882 9.81421 5.34998 8.5001 5.34998H6.65133ZM5.35113 5.35111C5.37038 4.10358 5.63712 3.06862 6.35288 2.35286C7.09692 1.60882 8.18589 1.34998 9.5 1.34998H12.5C13.8141 1.34998 14.9031 1.60882 15.6471 2.35286C16.3912 3.0969 16.65 4.18587 16.65 5.49998V8.49998C16.65 9.81409 16.3912 10.9031 15.6471 11.6471C14.9314 12.3628 13.8964 12.6296 12.649 12.6488C12.6297 13.8964 12.363 14.9313 11.6472 15.6471C10.9032 16.3911 9.81421 16.65 8.5001 16.65H5.5001C4.18599 16.65 3.09702 16.3911 2.35298 15.6471C1.60894 14.9031 1.3501 13.8141 1.3501 12.5V9.49998C1.3501 8.18587 1.60894 7.0969 2.35298 6.35286C3.06872 5.63712 4.10365 5.37037 5.35113 5.35111ZM2.6501 9.49998C2.6501 8.31409 2.89126 7.65306 3.27222 7.27209C3.65318 6.89113 4.31421 6.64998 5.5001 6.64998H8.5001C9.68599 6.64998 10.347 6.89113 10.728 7.27209C11.1089 7.65306 11.3501 8.31409 11.3501 9.49998V12.5C11.3501 13.6859 11.1089 14.3469 10.728 14.7279C10.347 15.1088 9.68599 15.35 8.5001 15.35H5.5001C4.31421 15.35 3.65318 15.1088 3.27222 14.7279C2.89126 14.3469 2.6501 13.6859 2.6501 12.5V9.49998Z" fill="#B9B9B9"/>
</svg>
