<svg width="38" height="38" viewBox="0 0 38 38" fill="none" xmlns="http://www.w3.org/2000/svg">
<circle cx="19" cy="19" r="19" fill="white"/>
<path d="M21.25 20.25H16.75C14.9598 20.25 13.2429 20.9612 11.977 22.227C10.9307 23.2733 10.2634 24.4844 10.0634 26.0024C9.99122 26.55 10.4477 27 11 27H27C27.5523 27 28.0079 26.5497 27.927 26.0034C27.6939 24.4269 26.9205 23.069 25.8811 22.0889C24.6284 20.9077 22.9717 20.2499 21.25 20.25ZM19 9C17.8065 9 16.6619 9.47411 15.818 10.318C14.9741 11.1619 14.5 12.3065 14.5 13.5C14.5 14.6935 14.9741 15.8381 15.818 16.682C16.6619 17.5259 17.8065 18 19 18C20.1935 18 21.3381 17.5259 22.182 16.682C23.0259 15.8381 23.5 14.6935 23.5 13.5C23.5 12.3065 23.0259 11.1619 22.182 10.318C21.3381 9.47411 20.1935 9 19 9Z" fill="url(#paint0_linear_3351_107273)"/>
<defs>
<linearGradient id="paint0_linear_3351_107273" x1="19" y1="6.39711" x2="19" y2="37.125" gradientUnits="userSpaceOnUse">
<stop stop-color="#8DCCFF"/>
<stop offset="1" stop-color="#0285F0"/>
</linearGradient>
</defs>
</svg>
