<svg xmlns="http://www.w3.org/2000/svg" width="18" height="18" viewBox="0 0 18 18" fill="currentColor">
  <path d="M9 1C13.418 1 17 4.582 17 9C17 13.418 13.418 17 9 17C4.582 17 1 13.418 1 9C1 4.582 4.582 1 9 1ZM11.3513 12.3333H6.61C6.79266 13.3995 7.05813 14.4498 7.404 15.4747C7.916 15.6 8.45067 15.6667 9 15.6667C9.53467 15.6667 10.0547 15.604 10.5533 15.4847C10.7553 14.8853 11.0213 13.8347 11.3513 12.3333ZM14.7747 12.334H12.7027C12.565 13.1946 12.3758 14.0461 12.136 14.884C13.2358 14.2962 14.1497 13.4131 14.7747 12.334ZM5.25867 12.334H3.22533C3.84137 13.398 4.73835 14.2719 5.818 14.86C5.5816 14.0296 5.39482 13.1859 5.25867 12.3333V12.334ZM5.10333 7.00067H2.63867C2.43576 7.6477 2.3328 8.3219 2.33333 9C2.33333 9.69733 2.44 10.3693 2.63867 11H5.09C4.96491 9.66938 4.96937 8.32976 5.10333 7V7.00067ZM11.518 7.00067H6.44333C6.30042 8.32994 6.29595 9.67047 6.43 11.0007H11.532C11.6658 9.67044 11.6611 8.32992 11.518 7.00067ZM15.3613 7.00067H12.8587C12.9926 8.33042 12.9971 9.67005 12.872 11.0007H15.3613C15.5644 10.3532 15.6673 9.67854 15.6667 9C15.6667 8.30333 15.56 7.63133 15.3613 7V7.00067ZM5.83733 3.12867C4.79467 3.71533 3.824 4.63067 3.22533 5.666H5.27733C5.414 4.824 5.60067 3.99933 5.83733 3.12867ZM9 2.33333C8.45333 2.33333 7.922 2.39933 7.41333 2.52333C7.07682 3.55091 6.81481 4.60141 6.62933 5.66667H11.332C11.1458 4.59804 10.8829 3.54421 10.5453 2.51333C10.039 2.39323 9.52037 2.33282 9 2.33333ZM12.116 3.10533C12.336 3.912 12.5547 4.86667 12.684 5.66667H14.7747C14.1459 4.58069 13.2247 3.6932 12.116 3.10533Z" fill="currentColor"/>
</svg>