<svg width="18" height="18" viewBox="0 0 18 18" fill="none" xmlns="http://www.w3.org/2000/svg">
<path d="M9 16C12.866 16 16 12.866 16 9C16 5.13401 12.866 2 9 2C5.13401 2 2 5.13401 2 9C2 10.1198 2.26293 11.1781 2.73042 12.1167C2.85466 12.3662 2.89601 12.6512 2.82398 12.9204L2.40706 14.4787C2.22607 15.1551 2.84491 15.7739 3.52134 15.5929L5.07957 15.176C5.34875 15.104 5.63385 15.1453 5.88327 15.2696C6.82186 15.7371 7.88022 16 9 16Z" stroke="#222222" stroke-width="1.5"/>
<path d="M6 9H12" stroke="currentColor" stroke-width="1.5" stroke-linecap="round"/>
<path d="M9 6L9 12" stroke="currentColor" stroke-width="1.5" stroke-linecap="round"/>
</svg>
