<svg width="32" height="32" viewBox="0 0 32 32" fill="none" xmlns="http://www.w3.org/2000/svg">
<path d="M25 17.0452V10.7121C25 9.58889 25 9.02643 24.7822 8.59699C24.5905 8.21888 24.2842 7.91168 23.9079 7.71902C23.4801 7.5 22.9203 7.5 21.8002 7.5H10.2002C9.08009 7.5 8.51962 7.5 8.0918 7.71902C7.71547 7.91168 7.40973 8.21888 7.21799 8.59699C7 9.02685 7 9.58999 7 10.7154V22.241C7 23.3118 7 23.8471 7.21846 24.1221C7.40845 24.3612 7.69644 24.5003 8.00098 24.5C8.35115 24.4996 8.76744 24.165 9.59961 23.4961L11.1236 22.2711L11.1272 22.2682C11.4496 22.009 11.6115 21.8789 11.7917 21.7864C11.9522 21.7041 12.1228 21.6441 12.2993 21.6077C12.4983 21.5666 12.7065 21.5666 13.1226 21.5666H15.2928" stroke="black" stroke-width="2" stroke-linecap="round" stroke-linejoin="round"/>
<path d="M22 25V22M22 22V19M22 22H19M22 22H25" stroke="black" stroke-width="2" stroke-linecap="round" stroke-linejoin="round"/>
</svg>
