<svg xmlns="http://www.w3.org/2000/svg" width="16" height="16" viewBox="0 0 16 16" fill="currentColor">
  <path d="M1.3615 14.5091C0.461134 13.6102 0.343316 12.0727 1.08513 10.1455C1.37168 9.41384 1.73095 8.7113 2.15277 8.04802L2.18186 8.00002L2.15277 7.95202C1.73086 7.28929 1.37289 6.58795 1.08368 5.85748C0.343316 3.9273 0.461134 2.38984 1.3615 1.48948C1.8575 0.993477 2.57023 0.727295 3.43277 0.727295C4.69532 0.727295 6.24004 1.2902 7.8255 2.28366L7.8735 2.31275L7.92004 2.28366C9.50404 1.29166 11.0488 0.727295 12.3113 0.727295C13.1739 0.727295 13.8866 0.993477 14.3811 1.48948C15.28 2.38984 15.3993 3.92875 14.6575 5.85602C14.3692 6.58666 14.0117 7.28804 13.5899 7.95057L13.5593 8.00002L13.5884 8.04657C14.032 8.75493 14.3957 9.46184 14.6575 10.1426C15.3993 12.0698 15.2815 13.6087 14.3811 14.5091C13.8866 15.0051 13.1739 15.2713 12.3128 15.2713C11.0488 15.2713 9.5055 14.7069 7.92004 13.7149L7.87059 13.6858L7.82404 13.7149C6.23859 14.7084 4.69386 15.2727 3.43132 15.2727C2.56877 15.2727 1.85604 15.0066 1.3615 14.5106V14.5091ZM13.443 10.6109C13.265 10.1554 13.0551 9.7131 12.8146 9.28729L12.7477 9.17093L12.6662 9.27711C11.648 10.5949 10.4655 11.776 9.14913 12.7942L9.04295 12.8771L9.15932 12.9426C10.3186 13.5927 11.4284 13.9724 12.3113 13.9724C12.8102 13.9724 13.203 13.8502 13.4604 13.5913C13.728 13.3251 13.8488 12.9047 13.8415 12.3986C13.8342 11.8895 13.7004 11.2786 13.443 10.6095V10.6109ZM7.81968 12.0727L7.87059 12.1106L7.92295 12.0727C9.47654 10.9602 10.8388 9.60235 11.9564 8.05239L11.9942 8.00002L11.9564 7.94911C10.8407 6.39711 9.47818 5.03849 7.92295 3.92729L7.87059 3.89093L7.81968 3.92875C6.26561 5.04122 4.90284 6.39907 3.78477 7.94911L3.74695 8.00002L3.78477 8.05239C4.90099 9.60442 6.26402 10.963 7.81968 12.0742V12.0727ZM13.4619 2.4102C13.2015 2.15129 12.8088 2.02911 12.3113 2.02911C11.427 2.02911 10.3186 2.40729 9.15932 3.05893L9.04295 3.12439L9.14913 3.20584C10.467 4.22402 11.6495 5.40511 12.6662 6.72293L12.7477 6.82911L12.8131 6.71275C13.0633 6.2662 13.2786 5.82257 13.443 5.38911C13.7004 4.72293 13.8357 4.11202 13.8415 3.60293C13.8488 3.09529 13.728 2.67639 13.4619 2.4102ZM2.29823 5.39057C2.47713 5.84584 2.68804 6.28802 2.92804 6.7142L2.99495 6.82911L3.07641 6.72293C4.09295 5.40495 5.27448 4.22292 6.59204 3.20584L6.69968 3.12439L6.58332 3.05893C5.42259 2.40729 4.31423 2.02911 3.42986 2.02911C2.93095 2.02911 2.53823 2.15129 2.28077 2.4102C2.01459 2.67639 1.89386 3.09529 1.90113 3.60293C1.90695 4.11202 2.04223 4.72293 2.29823 5.39057ZM2.29823 10.6109C2.04077 11.2786 1.90695 11.8895 1.90113 12.3986C1.89386 12.9047 2.01313 13.3251 2.27932 13.5913C2.53968 13.8502 2.93241 13.9724 3.42986 13.9724C4.31423 13.9724 5.42259 13.5942 6.58186 12.9426L6.69823 12.8771L6.59204 12.7942C5.27448 11.7771 4.09295 10.5951 3.07641 9.27711L2.9935 9.17093L2.92804 9.28729C2.68659 9.71348 2.47713 10.1557 2.29823 10.6109Z" fill="currentColor"/>
</svg>