<svg width="18" height="18" viewBox="0 0 18 18" fill="currentColor" xmlns="http://www.w3.org/2000/svg">
<path d="M2.3615 15.5091C1.46113 14.6102 1.34332 13.0727 2.08513 11.1455C2.37168 10.4138 2.73095 9.7113 3.15277 9.04802L3.18186 9.00002L3.15277 8.95202C2.73086 8.28929 2.37289 7.58795 2.08368 6.85748C1.34332 4.9273 1.46113 3.38984 2.3615 2.48948C2.8575 1.99348 3.57023 1.72729 4.43277 1.72729C5.69532 1.72729 7.24004 2.2902 8.8255 3.28366L8.8735 3.31275L8.92004 3.28366C10.504 2.29166 12.0488 1.72729 13.3113 1.72729C14.1739 1.72729 14.8866 1.99348 15.3811 2.48948C16.28 3.38984 16.3993 4.92875 15.6575 6.85602C15.3692 7.58666 15.0117 8.28804 14.5899 8.95057L14.5593 9.00002L14.5884 9.04657C15.032 9.75493 15.3957 10.4618 15.6575 11.1426C16.3993 13.0698 16.2815 14.6087 15.3811 15.5091C14.8866 16.0051 14.1739 16.2713 13.3128 16.2713C12.0488 16.2713 10.5055 15.7069 8.92004 14.7149L8.87059 14.6858L8.82404 14.7149C7.23859 15.7084 5.69386 16.2727 4.43132 16.2727C3.56877 16.2727 2.85604 16.0066 2.3615 15.5106V15.5091ZM14.443 11.6109C14.265 11.1554 14.0551 10.7131 13.8146 10.2873L13.7477 10.1709L13.6662 10.2771C12.648 11.5949 11.4655 12.776 10.1491 13.7942L10.043 13.8771L10.1593 13.9426C11.3186 14.5927 12.4284 14.9724 13.3113 14.9724C13.8102 14.9724 14.203 14.8502 14.4604 14.5913C14.728 14.3251 14.8488 13.9047 14.8415 13.3986C14.8342 12.8895 14.7004 12.2786 14.443 11.6095V11.6109ZM8.81968 13.0727L8.87059 13.1106L8.92295 13.0727C10.4765 11.9602 11.8388 10.6023 12.9564 9.05239L12.9942 9.00002L12.9564 8.94911C11.8407 7.39711 10.4782 6.03849 8.92295 4.92729L8.87059 4.89093L8.81968 4.92875C7.26561 6.04122 5.90284 7.39907 4.78477 8.94911L4.74695 9.00002L4.78477 9.05239C5.90099 10.6044 7.26402 11.963 8.81968 13.0742V13.0727ZM14.4619 3.4102C14.2015 3.15129 13.8088 3.02911 13.3113 3.02911C12.427 3.02911 11.3186 3.40729 10.1593 4.05893L10.043 4.12439L10.1491 4.20584C11.467 5.22402 12.6495 6.40511 13.6662 7.72293L13.7477 7.82911L13.8131 7.71275C14.0633 7.2662 14.2786 6.82257 14.443 6.38911C14.7004 5.72293 14.8357 5.11202 14.8415 4.60293C14.8488 4.09529 14.728 3.67639 14.4619 3.4102ZM3.29823 6.39057C3.47713 6.84584 3.68804 7.28802 3.92804 7.7142L3.99495 7.82911L4.07641 7.72293C5.09295 6.40495 6.27448 5.22292 7.59204 4.20584L7.69968 4.12439L7.58332 4.05893C6.42259 3.40729 5.31423 3.02911 4.42986 3.02911C3.93095 3.02911 3.53823 3.15129 3.28077 3.4102C3.01459 3.67639 2.89386 4.09529 2.90113 4.60293C2.90695 5.11202 3.04223 5.72293 3.29823 6.39057ZM3.29823 11.6109C3.04077 12.2786 2.90695 12.8895 2.90113 13.3986C2.89386 13.9047 3.01313 14.3251 3.27932 14.5913C3.53968 14.8502 3.93241 14.9724 4.42986 14.9724C5.31423 14.9724 6.42259 14.5942 7.58186 13.9426L7.69823 13.8771L7.59204 13.7942C6.27448 12.7771 5.09295 11.5951 4.07641 10.2771L3.9935 10.1709L3.92804 10.2873C3.68659 10.7135 3.47713 11.1557 3.29823 11.6109Z" fill="currentColor"/>
<path d="M9.49596 10.5113C9.24753 10.6146 8.97744 10.6548 8.70969 10.6286C8.44193 10.6023 8.18481 10.5104 7.96116 10.3608C7.73751 10.2113 7.55425 10.0088 7.42768 9.77145C7.3011 9.53405 7.23512 9.26906 7.2356 9.00002C7.23589 8.70395 7.31657 8.41352 7.46903 8.15972C7.62149 7.90592 7.84001 7.69828 8.10126 7.55898C8.36251 7.41967 8.65669 7.35392 8.95239 7.36875C9.24809 7.38358 9.53421 7.47843 9.78022 7.64317C10.0262 7.80791 10.2229 8.03636 10.3492 8.30414C10.4755 8.57192 10.5267 8.86897 10.4974 9.16359C10.468 9.4582 10.3593 9.73932 10.1826 9.97694C10.006 10.2146 9.76817 10.3997 9.49451 10.5128L9.49596 10.5113Z" fill="currentColor"/>
</svg>
